<?xml version="1.0" encoding="UTF-8"?>
<svg width="74.737" height="99.999" version="1.1" viewBox="0 0 1.4947 2" xmlns="http://www.w3.org/2000/svg">
 <title>150</title>
 <g transform="matrix(.125 0 0 .125 -.25525 0)" fill="#2a7fff" fill-rule="evenodd">
  <g transform="translate(2)" fill="#2a7fff">
   <path class="si-glyph-fill" d="m8.031 0.031v3.938h3.871z"/>
   <path class="si-glyph-fill" d="m4.492 9.021c-1.367 0-2.477 1.11-2.477 2.477 0 0.515 0.158 0.993 0.428 1.39l-2.385 2.385 0.707 0.707 2.398-2.398c0.385 0.246 0.838 0.394 1.328 0.394 1.366 0 2.477-1.11 2.477-2.477s-1.11-2.478-2.476-2.478zm0.024 4.078c-0.87 0-1.578-0.708-1.578-1.578s0.708-1.578 1.578-1.578c0.869 0 1.578 0.708 1.578 1.578s-0.709 1.578-1.578 1.578z"/>
   <path class="si-glyph-fill" d="m7 5v-5h-6.958v13.876l1.059-1.059c-0.16-0.409-0.256-0.851-0.256-1.316 0-2.002 1.623-3.625 3.625-3.625s3.625 1.623 3.625 3.625-1.623 3.625-3.625 3.625c-0.428 0-0.832-0.088-1.213-0.223l-1.035 1.097h9.778v-11z"/>
  </g>
 </g>
</svg>
